<svg xmlns="http://www.w3.org/2000/svg" width="32" height="32" id="bank"><g transform="translate(-397.5 -2451.862)"><path fill="#4bbfeb" d="m414 2453.647-10.406 6.715h20.813L414 2453.647z"></path><rect width="2" height="14" x="424.501" y="2463.862" fill="#f8b84e" rx="0" ry="0"></rect><rect width="4" height="2" x="423.501" y="2461.862" fill="#fcd062" ry="1"></rect><rect width="4" height="2" x="423.501" y="2477.862" fill="#fcd062" ry="1"></rect><rect width="2" height="14" x="418.501" y="2463.862" fill="#f8b84e" rx="0" ry="0"></rect><rect width="4" height="2" x="417.501" y="2461.862" fill="#fcd062" ry="1"></rect><rect width="4" height="2" x="417.501" y="2477.862" fill="#fcd062" ry="1"></rect><rect width="31" height="3" x="398.501" y="2479.862" fill="#f8b84e" rx="1.5" ry="1.5"></rect><rect width="2" height="14" x="401.501" y="2463.862" fill="#f8b84e" rx="0" ry="0"></rect><path fill="#f8b84e" d="m414 2451.862 15.5 10h-31z"></path><path fill="#fcd062" d="M415.5 2457.362a1.5 1.5 0 0 1-1.5 1.5 1.5 1.5 0 0 1-1.5-1.5 1.5 1.5 0 0 1 1.5-1.5 1.5 1.5 0 0 1 1.5 1.5z"></path><rect width="4" height="2" x="400.501" y="2461.862" fill="#fcd062" ry="1"></rect><rect width="4" height="2" x="400.501" y="2477.862" fill="#fcd062" ry="1"></rect><rect width="2" height="14" x="407.501" y="2463.862" fill="#f8b84e" rx="0" ry="0"></rect><rect width="4" height="2" x="406.501" y="2461.862" fill="#fcd062" ry="1"></rect><rect width="4" height="2" x="406.501" y="2477.862" fill="#fcd062" ry="1"></rect><path style="line-height:normal;text-indent:0;text-align:start;text-decoration-line:none;text-decoration-style:solid;text-decoration-color:#000;text-transform:none;block-progression:tb;isolation:auto;mix-blend-mode:normal" fill="#34485c" fill-rule="evenodd" d="M411.527 1447v.01h-.021v1h1.025c.935 0 1.406.441 1.576.99h-2.58v1h2.58c-.17.549-.642.992-1.576.992h-1.025v.707h-.002.002v.29h.293l3.052 3.007.702-.71-2.395-2.364c1.084-.228 1.782-1.035 1.975-1.926h1.363v-1h-1.363c-.078-.36-.244-.7-.479-1h1.842v-1h-4.969z" color="#000" font-family="sans-serif" font-weight="400" overflow="visible" transform="translate(0 1020.362)"></path></g></svg>